<svg width="3184" height="1811" xmlns="http://www.w3.org/2000/svg" xmlns:xlink="http://www.w3.org/1999/xlink" xml:space="preserve" overflow="hidden"><g transform="translate(-91 -494)"><rect x="2664.5" y="1233.5" width="607" height="203" stroke="#042433" stroke-width="6.875" stroke-miterlimit="8" fill="#156082"/><text fill="#FFFFFF" font-family="Aptos,Aptos_MSFontService,sans-serif" font-weight="400" font-size="83" transform="matrix(1 0 0 1 2750.97 1311)">Hierarchical </text><text fill="#FFFFFF" font-family="Aptos,Aptos_MSFontService,sans-serif" font-weight="400" font-size="83" transform="matrix(1 0 0 1 2759.36 1410)">(nested list)</text><rect x="979.5" y="1233.5" width="607" height="203" stroke="#042433" stroke-width="6.875" stroke-miterlimit="8" fill="#156082"/><text fill="#FFFFFF" font-family="Aptos,Aptos_MSFontService,sans-serif" font-weight="400" font-size="83" transform="matrix(1 0 0 1 1102.49 1311)">Relational </text><text fill="#FFFFFF" font-family="Aptos,Aptos_MSFontService,sans-serif" font-weight="400" font-size="83" transform="matrix(1 0 0 1 1066.07 1410)">(data frame)</text><rect x="1830.5" y="1242.5" width="607" height="203" stroke="#042433" stroke-width="6.875" stroke-miterlimit="8" fill="#156082"/><text fill="#FFFFFF" font-family="Aptos,Aptos_MSFontService,sans-serif" font-weight="400" font-size="83" transform="matrix(1 0 0 1 1945.71 1321)">Path string </text><text fill="#FFFFFF" font-family="Aptos,Aptos_MSFontService,sans-serif" font-weight="400" font-size="83" transform="matrix(1 0 0 1 1917.11 1420)">(data frame)</text><rect x="1822.5" y="497.5" width="607" height="203" stroke="#042433" stroke-width="6.875" stroke-miterlimit="8" fill="#084F6A"/><text fill="#FFFFFF" font-family="Aptos,Aptos_MSFontService,sans-serif" font-weight="400" font-size="83" transform="matrix(1 0 0 1 2027.43 625)">YAML</text><rect x="979.5" y="497.5" width="607" height="203" stroke="#042433" stroke-width="6.875" stroke-miterlimit="8" fill="#084F6A"/><text fill="#FFFFFF" font-family="Aptos,Aptos_MSFontService,sans-serif" font-weight="400" font-size="83" transform="matrix(1 0 0 1 1077.82 625)">CSV flat file</text><rect x="2664.5" y="497.5" width="607" height="203" stroke="#042433" stroke-width="6.875" stroke-miterlimit="8" fill="#084F6A"/><text fill="#FFFFFF" font-family="Aptos,Aptos_MSFontService,sans-serif" font-weight="400" font-size="83" transform="matrix(1 0 0 1 2871.55 625)">JSON</text><rect x="1695.5" y="2099.5" width="877" height="202" stroke="#042433" stroke-width="6.875" stroke-miterlimit="8" fill="#156082"/><text fill="#FFFFFF" font-family="Aptos,Aptos_MSFontService,sans-serif" font-weight="400" font-size="83" transform="matrix(1 0 0 1 1852.31 2227)">data.tree</text><text fill="#FFFFFF" font-family="Aptos,Aptos_MSFontService,sans-serif" font-weight="400" font-size="83" transform="matrix(1 0 0 1 2189.81 2227)">object</text><path d="M1286.94 700.5 1286.94 1210.47 1280.06 1210.47 1280.06 700.5ZM1297.25 1205.89 1283.5 1233.39 1269.75 1205.89Z" fill="#156082"/><path d="M2127.34 697.595 2950.57 1218.23 2946.9 1224.04 2123.66 703.405ZM2952.21 1207.07 2968.1 1233.39 2937.51 1230.31Z" fill="#156082"/><path d="M2971.94 700.5 2971.94 1210.47 2965.06 1210.47 2965.06 700.5ZM2982.25 1205.89 2968.5 1233.39 2954.75 1205.89Z" fill="#156082"/><path d="M1285.35 697.601 2117.06 1227.65 2113.37 1233.45 1281.65 703.399ZM2118.74 1216.49 2134.54 1242.87 2103.96 1239.68Z" fill="#156082"/><path d="M1285.61 1433.79 2118.57 2082.76 2114.35 2088.18 1281.39 1439.21ZM2121.3 2071.8 2134.54 2099.55 2104.4 2093.5Z" fill="#156082"/><path d="M2137.94 1445.5 2137.94 2076.16 2131.06 2076.16 2131.06 1445.5ZM2148.25 2071.57 2134.5 2099.07 2120.75 2071.57Z" fill="#156082"/><path d="M2.13897-2.69095 818.359 646.1 814.081 651.482-2.13897 2.69095ZM821.189 635.176 834.161 663.052 804.078 656.704Z" fill="#156082" transform="matrix(-1 0 0 1 2968.66 1436.5)"/><text font-family="Courier New,Courier New_MSFontService,sans-serif" font-weight="400" font-size="46" transform="matrix(0.786354 0.617776 -0.617776 0.786354 1505.82 1547)">load_tree_df</text><text font-family="Courier New,Courier New_MSFontService,sans-serif" font-weight="400" font-size="46" transform="matrix(0.786354 0.617776 -0.617776 0.786354 1765.31 1751)">()</text><text font-family="Courier New,Courier New_MSFontService,sans-serif" font-weight="400" font-size="46" transform="matrix(0.778869 -0.627186 0.627186 0.778869 2314.42 1900)">load_tree_node_list</text><text font-family="Courier New,Courier New_MSFontService,sans-serif" font-weight="400" font-size="46" transform="matrix(0.778869 -0.627186 0.627186 0.778869 2721.38 1573)">()</text><text font-family="Courier New,Courier New_MSFontService,sans-serif" font-weight="400" font-size="46" transform="matrix(6.12323e-17 1 -1 6.12323e-17 2176.01 1493)">load_tree_df_path</text><text font-family="Courier New,Courier New_MSFontService,sans-serif" font-weight="400" font-size="46" transform="matrix(6.12323e-17 1 -1 6.12323e-17 2176.01 1960)">()</text><text font-family="Courier New,Courier New_MSFontService,sans-serif" font-weight="400" font-size="46" transform="matrix(6.12323e-17 1 -1 6.12323e-17 1326.31 806)">load_tree_csv</text><text font-family="Courier New,Courier New_MSFontService,sans-serif" font-weight="400" font-size="46" transform="matrix(6.12323e-17 1 -1 6.12323e-17 1326.31 1163)">()</text><text font-family="Courier New,Courier New_MSFontService,sans-serif" font-weight="400" font-size="46" transform="matrix(0.830613 0.55685 -0.55685 0.830613 1581.99 823)">load_tree_csv_path</text><text font-family="Courier New,Courier New_MSFontService,sans-serif" font-weight="400" font-size="46" transform="matrix(0.830613 0.55685 -0.55685 0.830613 1993.15 1099)">()</text><text font-family="Courier New,Courier New_MSFontService,sans-serif" font-weight="400" font-size="46" transform="matrix(6.12323e-17 1 -1 6.12323e-17 3011.51 746)">load_tree_json</text><text font-family="Courier New,Courier New_MSFontService,sans-serif" font-weight="400" font-size="46" transform="matrix(6.12323e-17 1 -1 6.12323e-17 3011.51 1131)">()</text><text font-family="Courier New,Courier New_MSFontService,sans-serif" font-weight="400" font-size="46" transform="matrix(0.833936 0.551861 -0.551861 0.833936 2414.55 825)">load_tree_yaml</text><text font-family="Courier New,Courier New_MSFontService,sans-serif" font-weight="400" font-size="46" transform="matrix(0.833936 0.551861 -0.551861 0.833936 2735.62 1038)">()</text><text font-family="Aptos,Aptos_MSFontService,sans-serif" font-weight="400" font-size="83" transform="matrix(1 0 0 1 140.816 624)">External file formats</text><text font-family="Aptos,Aptos_MSFontService,sans-serif" font-weight="400" font-size="83" transform="matrix(1 0 0 1 140.816 1360)">Internal R formats</text><text font-family="Aptos,Aptos_MSFontService,sans-serif" font-weight="400" font-size="83" transform="matrix(1 0 0 1 140.816 2226)">andorR</text><text font-family="Aptos,Aptos_MSFontService,sans-serif" font-weight="400" font-size="83" transform="matrix(1 0 0 1 415.816 2226)">analysis formats</text></g></svg>